<svg width="132" height="15" viewBox="0 0 132 15" fill="none" xmlns="http://www.w3.org/2000/svg">
<path d="M7.808 6.728V8.056H5.024V10.84H3.696V8.056H0.928V6.728H3.696V3.96H5.024V6.728H7.808ZM16.8788 5.352C16.8788 6.216 16.6494 6.968 16.1908 7.608H16.2068L12.5908 13H10.9108L13.5668 9.08C13.3321 9.10133 13.1508 9.112 13.0228 9.112C11.8921 9.112 10.9641 8.76533 10.2388 8.072C9.52408 7.368 9.16675 6.46133 9.16675 5.352C9.16675 4.24267 9.52408 3.34133 10.2388 2.648C10.9641 1.944 11.8921 1.592 13.0228 1.592C14.1534 1.592 15.0761 1.944 15.7908 2.648C16.5161 3.34133 16.8788 4.24267 16.8788 5.352ZM11.2948 3.656C10.8574 4.08267 10.6388 4.648 10.6388 5.352C10.6388 6.056 10.8574 6.62667 11.2948 7.064C11.7428 7.49067 12.3188 7.704 13.0228 7.704C13.7268 7.704 14.2974 7.49067 14.7348 7.064C15.1828 6.62667 15.4068 6.056 15.4068 5.352C15.4068 4.648 15.1881 4.08267 14.7508 3.656C14.3134 3.22933 13.7374 3.016 13.0228 3.016C12.3188 3.016 11.7428 3.22933 11.2948 3.656ZM25.4881 5.352C25.4881 6.216 25.2588 6.968 24.8001 7.608H24.8161L21.2001 13H19.5201L22.1761 9.08C21.9415 9.10133 21.7601 9.112 21.6321 9.112C20.5015 9.112 19.5735 8.76533 18.8481 8.072C18.1335 7.368 17.7761 6.46133 17.7761 5.352C17.7761 4.24267 18.1335 3.34133 18.8481 2.648C19.5735 1.944 20.5015 1.592 21.6321 1.592C22.7628 1.592 23.6855 1.944 24.4001 2.648C25.1255 3.34133 25.4881 4.24267 25.4881 5.352ZM19.9041 3.656C19.4668 4.08267 19.2481 4.648 19.2481 5.352C19.2481 6.056 19.4668 6.62667 19.9041 7.064C20.3521 7.49067 20.9281 7.704 21.6321 7.704C22.3361 7.704 22.9068 7.49067 23.3441 7.064C23.7921 6.62667 24.0161 6.056 24.0161 5.352C24.0161 4.648 23.7975 4.08267 23.3601 3.656C22.9228 3.22933 22.3468 3.016 21.6321 3.016C20.9281 3.016 20.3521 3.22933 19.9041 3.656ZM29.929 5.672C31.049 5.672 31.9717 6.024 32.697 6.728C33.4223 7.42133 33.785 8.32267 33.785 9.432C33.785 10.5413 33.4223 11.448 32.697 12.152C31.9717 12.856 31.049 13.208 29.929 13.208C28.7983 13.208 27.8703 12.856 27.145 12.152C26.4303 11.448 26.073 10.5413 26.073 9.432C26.073 8.568 26.297 7.82133 26.745 7.192L30.345 1.8H32.041L29.401 5.704C29.6357 5.68267 29.8117 5.672 29.929 5.672ZM28.201 11.144C28.649 11.5707 29.225 11.784 29.929 11.784C30.633 11.784 31.2037 11.5707 31.641 11.144C32.089 10.7067 32.313 10.136 32.313 9.432C32.313 8.728 32.089 8.16267 31.641 7.736C31.2037 7.30933 30.633 7.096 29.929 7.096C29.2143 7.096 28.6383 7.30933 28.201 7.736C27.7637 8.16267 27.545 8.728 27.545 9.432C27.545 10.136 27.7637 10.7067 28.201 11.144ZM40.9224 14.6C39.749 12.2533 39.1624 9.85333 39.1624 7.4C39.1624 4.94667 39.749 2.54667 40.9224 0.2H42.3144C41.141 2.54667 40.5544 4.94667 40.5544 7.4C40.5544 9.85333 41.141 12.2533 42.3144 14.6H40.9224ZM47.0388 6.168C48.0948 6.168 48.9854 6.48267 49.7108 7.112C50.4468 7.73067 50.8148 8.58933 50.8148 9.688C50.8148 10.776 50.4414 11.6347 49.6948 12.264C48.9481 12.8933 48.0414 13.208 46.9748 13.208C46.1214 13.208 45.3588 13.0053 44.6868 12.6C44.0148 12.184 43.5454 11.5867 43.2788 10.808L44.5428 10.088C44.6921 10.632 44.9801 11.048 45.4068 11.336C45.8334 11.6133 46.3561 11.752 46.9748 11.752C47.6788 11.752 48.2494 11.5707 48.6868 11.208C49.1241 10.8453 49.3428 10.3387 49.3428 9.688C49.3428 9.03733 49.1241 8.53067 48.6868 8.168C48.2494 7.79467 47.6894 7.608 47.0068 7.608H43.8388L44.2548 1.8H50.3828V3.192H45.5988L45.4068 6.168H47.0388ZM55.57 6.168C56.626 6.168 57.5167 6.48267 58.242 7.112C58.978 7.73067 59.346 8.58933 59.346 9.688C59.346 10.776 58.9727 11.6347 58.226 12.264C57.4793 12.8933 56.5727 13.208 55.506 13.208C54.6527 13.208 53.89 13.0053 53.218 12.6C52.546 12.184 52.0767 11.5867 51.81 10.808L53.074 10.088C53.2233 10.632 53.5113 11.048 53.938 11.336C54.3647 11.6133 54.8873 11.752 55.506 11.752C56.21 11.752 56.7807 11.5707 57.218 11.208C57.6553 10.8453 57.874 10.3387 57.874 9.688C57.874 9.03733 57.6553 8.53067 57.218 8.168C56.7807 7.79467 56.2207 7.608 55.538 7.608H52.37L52.786 1.8H58.914V3.192H54.13L53.938 6.168H55.57ZM64.8373 6.392C65.6906 6.552 66.3893 6.92 66.9333 7.496C67.4773 8.072 67.7493 8.80267 67.7493 9.688C67.7493 10.776 67.3759 11.6347 66.6293 12.264C65.8826 12.8933 64.9759 13.208 63.9093 13.208C63.0559 13.208 62.2986 13.016 61.6373 12.632C60.9759 12.2373 60.5066 11.672 60.2293 10.936L61.4773 10.2C61.8079 11.2347 62.6186 11.752 63.9093 11.752C64.6026 11.752 65.1679 11.5707 65.6053 11.208C66.0426 10.8453 66.2613 10.3387 66.2613 9.688C66.2613 9.03733 66.0426 8.53067 65.6053 8.168C65.1679 7.79467 64.6026 7.608 63.9093 7.608H63.5253L62.9333 6.696L65.5253 3.192H60.5493V1.8H67.2693V3.112L64.8373 6.392ZM70.1358 14.6H68.7438C69.9171 12.2533 70.5038 9.85333 70.5038 7.4C70.5038 4.94667 69.9171 2.54667 68.7438 0.2H70.1358C71.3091 2.54667 71.8958 4.94667 71.8958 7.4C71.8958 9.85333 71.3091 12.2533 70.1358 14.6ZM84.9881 5.352C84.9881 6.216 84.7588 6.968 84.3001 7.608H84.3161L80.7001 13H79.0201L81.6761 9.08C81.4415 9.10133 81.2601 9.112 81.1321 9.112C80.0015 9.112 79.0735 8.76533 78.3481 8.072C77.6335 7.368 77.2761 6.46133 77.2761 5.352C77.2761 4.24267 77.6335 3.34133 78.3481 2.648C79.0735 1.944 80.0015 1.592 81.1321 1.592C82.2628 1.592 83.1855 1.944 83.9001 2.648C84.6255 3.34133 84.9881 4.24267 84.9881 5.352ZM79.4041 3.656C78.9668 4.08267 78.7481 4.648 78.7481 5.352C78.7481 6.056 78.9668 6.62667 79.4041 7.064C79.8521 7.49067 80.4281 7.704 81.1321 7.704C81.8361 7.704 82.4068 7.49067 82.8441 7.064C83.2921 6.62667 83.5161 6.056 83.5161 5.352C83.5161 4.648 83.2975 4.08267 82.8601 3.656C82.4228 3.22933 81.8468 3.016 81.1321 3.016C80.4281 3.016 79.8521 3.22933 79.4041 3.656ZM93.5975 5.352C93.5975 6.216 93.3682 6.968 92.9095 7.608H92.9255L89.3095 13H87.6295L90.2855 9.08C90.0508 9.10133 89.8695 9.112 89.7415 9.112C88.6108 9.112 87.6828 8.76533 86.9575 8.072C86.2428 7.368 85.8855 6.46133 85.8855 5.352C85.8855 4.24267 86.2428 3.34133 86.9575 2.648C87.6828 1.944 88.6108 1.592 89.7415 1.592C90.8722 1.592 91.7948 1.944 92.5095 2.648C93.2348 3.34133 93.5975 4.24267 93.5975 5.352ZM88.0135 3.656C87.5762 4.08267 87.3575 4.648 87.3575 5.352C87.3575 6.056 87.5762 6.62667 88.0135 7.064C88.4615 7.49067 89.0375 7.704 89.7415 7.704C90.4455 7.704 91.0162 7.49067 91.4535 7.064C91.9015 6.62667 92.1255 6.056 92.1255 5.352C92.1255 4.648 91.9068 4.08267 91.4695 3.656C91.0322 3.22933 90.4562 3.016 89.7415 3.016C89.0375 3.016 88.4615 3.22933 88.0135 3.656ZM98.6185 6.392C99.4718 6.552 100.171 6.92 100.715 7.496C101.259 8.072 101.531 8.80267 101.531 9.688C101.531 10.776 101.157 11.6347 100.411 12.264C99.6638 12.8933 98.7572 13.208 97.6905 13.208C96.8372 13.208 96.0798 13.016 95.4185 12.632C94.7572 12.2373 94.2878 11.672 94.0105 10.936L95.2585 10.2C95.5892 11.2347 96.3998 11.752 97.6905 11.752C98.3838 11.752 98.9492 11.5707 99.3865 11.208C99.8238 10.8453 100.043 10.3387 100.043 9.688C100.043 9.03733 99.8238 8.53067 99.3865 8.168C98.9492 7.79467 98.3838 7.608 97.6905 7.608H97.3065L96.7145 6.696L99.3065 3.192H94.3305V1.8H101.051V3.112L98.6185 6.392ZM111.181 6.392C112.034 6.552 112.733 6.92 113.277 7.496C113.821 8.072 114.093 8.80267 114.093 9.688C114.093 10.776 113.72 11.6347 112.973 12.264C112.226 12.8933 111.32 13.208 110.253 13.208C109.4 13.208 108.642 13.016 107.981 12.632C107.32 12.2373 106.85 11.672 106.573 10.936L107.821 10.2C108.152 11.2347 108.962 11.752 110.253 11.752C110.946 11.752 111.512 11.5707 111.949 11.208C112.386 10.8453 112.605 10.3387 112.605 9.688C112.605 9.03733 112.386 8.53067 111.949 8.168C111.512 7.79467 110.946 7.608 110.253 7.608H109.869L109.277 6.696L111.869 3.192H106.893V1.8H113.613V3.112L111.181 6.392ZM123.788 9.48V10.872H122.428V13H120.94V10.872H115.228V9.48L119.244 1.8H120.844L116.828 9.48H120.94V6.312H122.428V9.48H123.788ZM124.623 13V11.784L128.575 7.752C129.631 6.696 130.159 5.78933 130.159 5.032C130.159 4.40267 129.967 3.912 129.583 3.56C129.199 3.208 128.73 3.032 128.175 3.032C127.119 3.032 126.351 3.53333 125.871 4.536L124.623 3.8C124.975 3.07467 125.46 2.52533 126.079 2.152C126.708 1.77867 127.402 1.592 128.159 1.592C129.098 1.592 129.914 1.90133 130.607 2.52C131.3 3.13867 131.647 3.97067 131.647 5.016C131.647 6.14667 130.98 7.37867 129.647 8.712L126.783 11.56H131.855V13H124.623Z" fill="#FBC70E"/>
</svg>
