<svg width="70" height="11" viewBox="0 0 70 11" fill="none" xmlns="http://www.w3.org/2000/svg">
<path d="M3.984 5.87H2.164V10H0.372V0.199999H2.164V4.302H4.04L6.854 0.199999H8.786L5.44 4.946L8.912 10H6.854L3.984 5.87ZM13.1877 10.098C12.4317 10.098 11.7504 9.93467 11.1437 9.608C10.537 9.28133 10.061 8.82867 9.71569 8.25C9.37969 7.662 9.21169 6.99933 9.21169 6.262C9.21169 5.52467 9.37969 4.86667 9.71569 4.288C10.061 3.70933 10.537 3.25667 11.1437 2.93C11.7504 2.60333 12.4317 2.44 13.1877 2.44C13.953 2.44 14.639 2.60333 15.2457 2.93C15.8524 3.25667 16.3237 3.70933 16.6597 4.288C17.005 4.86667 17.1777 5.52467 17.1777 6.262C17.1777 6.99933 17.005 7.662 16.6597 8.25C16.3237 8.82867 15.8524 9.28133 15.2457 9.608C14.639 9.93467 13.953 10.098 13.1877 10.098ZM13.1877 8.6C13.8317 8.6 14.3637 8.38533 14.7837 7.956C15.2037 7.52667 15.4137 6.962 15.4137 6.262C15.4137 5.562 15.2037 4.99733 14.7837 4.568C14.3637 4.13867 13.8317 3.924 13.1877 3.924C12.5437 3.924 12.0117 4.13867 11.5917 4.568C11.181 4.99733 10.9757 5.562 10.9757 6.262C10.9757 6.962 11.181 7.52667 11.5917 7.956C12.0117 8.38533 12.5437 8.6 13.1877 8.6ZM18.9065 2.524H20.6565V5.562H24.4225V2.524H26.1725V10H24.4225V7.046H20.6565V10H18.9065V2.524ZM34.4398 4.008H31.8218V10H30.0718V4.008H27.4398V2.524H34.4398V4.008ZM38.4952 2.44C39.5965 2.44 40.4365 2.706 41.0152 3.238C41.6032 3.76067 41.8972 4.554 41.8972 5.618V10H40.2452V9.09C40.0305 9.41667 39.7225 9.66867 39.3212 9.846C38.9292 10.014 38.4532 10.098 37.8932 10.098C37.3332 10.098 36.8432 10.0047 36.4232 9.818C36.0032 9.622 35.6765 9.356 35.4432 9.02C35.2192 8.67467 35.1072 8.28733 35.1072 7.858C35.1072 7.186 35.3545 6.64933 35.8492 6.248C36.3532 5.83733 37.1419 5.632 38.2152 5.632H40.1472V5.52C40.1472 4.99733 39.9885 4.596 39.6712 4.316C39.3632 4.036 38.9012 3.896 38.2852 3.896C37.8652 3.896 37.4499 3.96133 37.0392 4.092C36.6379 4.22267 36.2972 4.40467 36.0172 4.638L35.3312 3.364C35.7232 3.06533 36.1945 2.83667 36.7452 2.678C37.2959 2.51933 37.8792 2.44 38.4952 2.44ZM38.2572 8.824C38.6959 8.824 39.0832 8.726 39.4192 8.53C39.7645 8.32467 40.0072 8.03533 40.1472 7.662V6.794H38.3412C37.3332 6.794 36.8292 7.12533 36.8292 7.788C36.8292 8.10533 36.9552 8.35733 37.2072 8.544C37.4592 8.73067 37.8092 8.824 38.2572 8.824ZM47.1707 7.004H45.8127V10H44.0627V2.524H45.8127V5.548H47.2127L49.4247 2.524H51.3007L48.5847 6.122L51.4827 10H49.4247L47.1707 7.004ZM58.5433 4.008H55.9253V10H54.1753V4.008H51.5433V2.524H58.5433V4.008ZM63.4527 4.988C64.4047 4.988 65.1327 5.20267 65.6367 5.632C66.1407 6.06133 66.3927 6.668 66.3927 7.452C66.3927 8.27333 66.1127 8.908 65.5527 9.356C65.0021 9.804 64.2181 10.0233 63.2007 10.014L59.8127 10V2.524H61.5627V4.974L63.4527 4.988ZM67.3587 2.524H69.1087V10H67.3587V2.524ZM63.0467 8.726C63.5601 8.73533 63.9521 8.628 64.2227 8.404C64.4934 8.18 64.6287 7.85333 64.6287 7.424C64.6287 7.004 64.4981 6.696 64.2367 6.5C63.9754 6.304 63.5787 6.20133 63.0467 6.192L61.5627 6.178V8.712L63.0467 8.726Z" fill="#2A2828"/>
</svg>
