<svg width="188" height="13" viewBox="0 0 188 13" fill="none" xmlns="http://www.w3.org/2000/svg">
<path d="M6.79 0.199999H8.4V10H6.79V5.758H2.59V10H0.98V0.199999H2.59V4.218H6.79V0.199999ZM15.8049 3H17.3169V10H15.8049V8.992C15.2356 9.78533 14.4189 10.182 13.3549 10.182C12.3936 10.182 11.5722 9.82733 10.8909 9.118C10.2096 8.39933 9.86891 7.52667 9.86891 6.5C9.86891 5.464 10.2096 4.59133 10.8909 3.882C11.5722 3.17267 12.3936 2.818 13.3549 2.818C14.4189 2.818 15.2356 3.21 15.8049 3.994V3ZM12.0109 8.11C12.4309 8.53 12.9582 8.74 13.5929 8.74C14.2276 8.74 14.7549 8.53 15.1749 8.11C15.5949 7.68067 15.8049 7.144 15.8049 6.5C15.8049 5.856 15.5949 5.324 15.1749 4.904C14.7549 4.47467 14.2276 4.26 13.5929 4.26C12.9582 4.26 12.4309 4.47467 12.0109 4.904C11.5909 5.324 11.3809 5.856 11.3809 6.5C11.3809 7.144 11.5909 7.68067 12.0109 8.11ZM27.3673 3H28.8793V10H19.0793V3H20.5913V8.572H23.2233V3H24.7353V8.572H27.3673V3ZM36.176 3H37.688V10H36.176V8.992C35.6067 9.78533 34.79 10.182 33.726 10.182C32.7647 10.182 31.9433 9.82733 31.262 9.118C30.5807 8.39933 30.24 7.52667 30.24 6.5C30.24 5.464 30.5807 4.59133 31.262 3.882C31.9433 3.17267 32.7647 2.818 33.726 2.818C34.79 2.818 35.6067 3.21 36.176 3.994V3ZM32.382 8.11C32.802 8.53 33.3293 8.74 33.964 8.74C34.5987 8.74 35.126 8.53 35.546 8.11C35.966 7.68067 36.176 7.144 36.176 6.5C36.176 5.856 35.966 5.324 35.546 4.904C35.126 4.47467 34.5987 4.26 33.964 4.26C33.3293 4.26 32.802 4.47467 32.382 4.904C31.962 5.324 31.752 5.856 31.752 6.5C31.752 7.144 31.962 7.68067 32.382 8.11ZM46.2544 10.182C45.1997 10.182 44.3177 9.82733 43.6084 9.118C42.9084 8.40867 42.5584 7.536 42.5584 6.5C42.5584 5.45467 42.9084 4.582 43.6084 3.882C44.3177 3.17267 45.1997 2.818 46.2544 2.818C46.9357 2.818 47.5564 2.98133 48.1164 3.308C48.6764 3.63467 49.0964 4.07333 49.3764 4.624L48.0744 5.38C47.9157 5.044 47.673 4.78267 47.3464 4.596C47.029 4.4 46.6604 4.302 46.2404 4.302C45.6244 4.302 45.1064 4.512 44.6864 4.932C44.2757 5.352 44.0704 5.87467 44.0704 6.5C44.0704 7.12533 44.2757 7.648 44.6864 8.068C45.1064 8.488 45.6244 8.698 46.2404 8.698C46.651 8.698 47.0197 8.6 47.3464 8.404C47.6824 8.208 47.9344 7.94667 48.1024 7.62L49.4044 8.362C49.1057 8.922 48.6764 9.36533 48.1164 9.692C47.5564 10.0187 46.9357 10.182 46.2544 10.182ZM55.6063 3H56.7683V10H55.2843V5.548L51.7003 10H50.5383V3H52.0223V7.438L55.6063 3ZM64.4306 3V10H62.9186V4.456H60.5806V7.06C60.5806 8.17067 60.338 8.95933 59.8526 9.426C59.3673 9.89267 58.6766 10.084 57.7806 10V8.586C58.21 8.66067 58.532 8.572 58.7466 8.32C58.9613 8.068 59.0686 7.62467 59.0686 6.99V3H64.4306ZM71.7365 3H73.2485V10H71.7365V8.992C71.1672 9.78533 70.3505 10.182 69.2865 10.182C68.3252 10.182 67.5039 9.82733 66.8225 9.118C66.1412 8.39933 65.8005 7.52667 65.8005 6.5C65.8005 5.464 66.1412 4.59133 66.8225 3.882C67.5039 3.17267 68.3252 2.818 69.2865 2.818C70.3505 2.818 71.1672 3.21 71.7365 3.994V3ZM67.9425 8.11C68.3625 8.53 68.8899 8.74 69.5245 8.74C70.1592 8.74 70.6865 8.53 71.1065 8.11C71.5265 7.68067 71.7365 7.144 71.7365 6.5C71.7365 5.856 71.5265 5.324 71.1065 4.904C70.6865 4.47467 70.1592 4.26 69.5245 4.26C68.8899 4.26 68.3625 4.47467 67.9425 4.904C67.5225 5.324 67.3125 5.856 67.3125 6.5C67.3125 7.144 67.5225 7.68067 67.9425 8.11ZM83.3549 6.402C84.0456 6.71933 84.3909 7.256 84.3909 8.012C84.3909 8.6 84.1902 9.08067 83.7889 9.454C83.3969 9.818 82.8322 10 82.0949 10H78.5109V3H81.8149C82.5336 3 83.0889 3.182 83.4809 3.546C83.8822 3.90067 84.0829 4.36267 84.0829 4.932C84.0829 5.59467 83.8402 6.08467 83.3549 6.402ZM81.7029 4.288H79.9529V5.842H81.7029C82.3189 5.842 82.6269 5.58067 82.6269 5.058C82.6269 4.54467 82.3189 4.288 81.7029 4.288ZM81.9549 8.684C82.5896 8.684 82.9069 8.40867 82.9069 7.858C82.9069 7.61533 82.8229 7.42867 82.6549 7.298C82.4869 7.158 82.2536 7.088 81.9549 7.088H79.9529V8.684H81.9549ZM93.9643 6.402C94.6549 6.71933 95.0003 7.256 95.0003 8.012C95.0003 8.6 94.7996 9.08067 94.3983 9.454C94.0063 9.818 93.4416 10 92.7043 10H89.1203V3H92.4243C93.1429 3 93.6983 3.182 94.0903 3.546C94.4916 3.90067 94.6923 4.36267 94.6923 4.932C94.6923 5.59467 94.4496 6.08467 93.9643 6.402ZM92.3123 4.288H90.5623V5.842H92.3123C92.9283 5.842 93.2363 5.58067 93.2363 5.058C93.2363 4.54467 92.9283 4.288 92.3123 4.288ZM92.5643 8.684C93.1989 8.684 93.5163 8.40867 93.5163 7.858C93.5163 7.61533 93.4323 7.42867 93.2643 7.298C93.0963 7.158 92.8629 7.088 92.5643 7.088H90.5623V8.684H92.5643ZM101.774 3H103.286V10H101.774V8.992C101.204 9.78533 100.388 10.182 99.3237 10.182C98.3623 10.182 97.541 9.82733 96.8597 9.118C96.1783 8.39933 95.8377 7.52667 95.8377 6.5C95.8377 5.464 96.1783 4.59133 96.8597 3.882C97.541 3.17267 98.3623 2.818 99.3237 2.818C100.388 2.818 101.204 3.21 101.774 3.994V3ZM97.9797 8.11C98.3997 8.53 98.927 8.74 99.5617 8.74C100.196 8.74 100.724 8.53 101.144 8.11C101.564 7.68067 101.774 7.144 101.774 6.5C101.774 5.856 101.564 5.324 101.144 4.904C100.724 4.47467 100.196 4.26 99.5617 4.26C98.927 4.26 98.3997 4.47467 97.9797 4.904C97.5597 5.324 97.3497 5.856 97.3497 6.5C97.3497 7.144 97.5597 7.68067 97.9797 8.11ZM113.336 3H114.848V10H105.048V3H106.56V8.572H109.192V3H110.704V8.572H113.336V3ZM117.791 7.144C117.903 7.676 118.159 8.08667 118.561 8.376C118.962 8.656 119.452 8.796 120.031 8.796C120.833 8.796 121.435 8.50667 121.837 7.928L123.083 8.656C122.392 9.67333 121.37 10.182 120.017 10.182C118.878 10.182 117.959 9.83667 117.259 9.146C116.559 8.446 116.209 7.564 116.209 6.5C116.209 5.45467 116.554 4.582 117.245 3.882C117.935 3.17267 118.822 2.818 119.905 2.818C120.931 2.818 121.771 3.17733 122.425 3.896C123.087 4.61467 123.419 5.48733 123.419 6.514C123.419 6.67267 123.4 6.88267 123.363 7.144H117.791ZM117.777 5.912H121.893C121.79 5.34267 121.552 4.91333 121.179 4.624C120.815 4.33467 120.385 4.19 119.891 4.19C119.331 4.19 118.864 4.344 118.491 4.652C118.117 4.96 117.879 5.38 117.777 5.912ZM131.889 3V10H130.419V5.394L128.403 8.6H128.221L126.219 5.408V10H124.749V3H126.289L128.319 6.234L130.349 3H131.889ZM141.854 3H143.464L140.776 10.224C140.449 11.1107 139.992 11.7733 139.404 12.212C138.816 12.6507 138.135 12.8467 137.36 12.8V11.386C137.836 11.414 138.219 11.316 138.508 11.092C138.807 10.8773 139.045 10.5273 139.222 10.042L139.264 9.944L136.324 3H137.934L140.062 8.096L141.854 3ZM147.44 10.182C146.385 10.182 145.503 9.82733 144.794 9.118C144.094 8.40867 143.744 7.536 143.744 6.5C143.744 5.45467 144.094 4.582 144.794 3.882C145.503 3.17267 146.385 2.818 147.44 2.818C148.121 2.818 148.742 2.98133 149.302 3.308C149.862 3.63467 150.282 4.07333 150.562 4.624L149.26 5.38C149.101 5.044 148.859 4.78267 148.532 4.596C148.215 4.4 147.846 4.302 147.426 4.302C146.81 4.302 146.292 4.512 145.872 4.932C145.461 5.352 145.256 5.87467 145.256 6.5C145.256 7.12533 145.461 7.648 145.872 8.068C146.292 8.488 146.81 8.698 147.426 8.698C147.837 8.698 148.205 8.6 148.532 8.404C148.868 8.208 149.12 7.94667 149.288 7.62L150.59 8.362C150.291 8.922 149.862 9.36533 149.302 9.692C148.742 10.0187 148.121 10.182 147.44 10.182ZM157.954 3V10H156.442V4.428H153.236V10H151.724V3H157.954ZM160.898 7.144C161.01 7.676 161.267 8.08667 161.668 8.376C162.07 8.656 162.56 8.796 163.138 8.796C163.941 8.796 164.543 8.50667 164.944 7.928L166.19 8.656C165.5 9.67333 164.478 10.182 163.124 10.182C161.986 10.182 161.066 9.83667 160.366 9.146C159.666 8.446 159.316 7.564 159.316 6.5C159.316 5.45467 159.662 4.582 160.352 3.882C161.043 3.17267 161.93 2.818 163.012 2.818C164.039 2.818 164.879 3.17733 165.532 3.896C166.195 4.61467 166.526 5.48733 166.526 6.514C166.526 6.67267 166.508 6.88267 166.47 7.144H160.898ZM160.884 5.912H165C164.898 5.34267 164.66 4.91333 164.286 4.624C163.922 4.33467 163.493 4.19 162.998 4.19C162.438 4.19 161.972 4.344 161.598 4.652C161.225 4.96 160.987 5.38 160.884 5.912ZM173.759 10H172.009L170.273 7.606L168.523 10H166.759L169.391 6.402L166.899 3H168.649L170.259 5.212L171.869 3H173.633L171.141 6.416L173.759 10ZM175.459 7.144C175.571 7.676 175.827 8.08667 176.229 8.376C176.63 8.656 177.12 8.796 177.699 8.796C178.501 8.796 179.103 8.50667 179.505 7.928L180.751 8.656C180.06 9.67333 179.038 10.182 177.685 10.182C176.546 10.182 175.627 9.83667 174.927 9.146C174.227 8.446 173.877 7.564 173.877 6.5C173.877 5.45467 174.222 4.582 174.913 3.882C175.603 3.17267 176.49 2.818 177.573 2.818C178.599 2.818 179.439 3.17733 180.093 3.896C180.755 4.61467 181.087 5.48733 181.087 6.514C181.087 6.67267 181.068 6.88267 181.031 7.144H175.459ZM175.445 5.912H179.561C179.458 5.34267 179.22 4.91333 178.847 4.624C178.483 4.33467 178.053 4.19 177.559 4.19C176.999 4.19 176.532 4.344 176.159 4.652C175.785 4.96 175.547 5.38 175.445 5.912ZM186.225 6.92L185.917 3V0.199999H187.737V3L187.415 6.92H186.225ZM187.569 9.86C187.364 10.0653 187.116 10.168 186.827 10.168C186.538 10.168 186.29 10.0653 186.085 9.86C185.88 9.65467 185.777 9.40733 185.777 9.118C185.777 8.82867 185.875 8.58133 186.071 8.376C186.276 8.17067 186.528 8.068 186.827 8.068C187.116 8.068 187.364 8.17067 187.569 8.376C187.774 8.58133 187.877 8.82867 187.877 9.118C187.877 9.40733 187.774 9.65467 187.569 9.86Z" fill="#FFB700"/>
</svg>
