<svg width="42" height="11" viewBox="0 0 42 11" fill="none" xmlns="http://www.w3.org/2000/svg">
<path d="M5.908 10.4056C4.90933 10.4056 4.00867 10.191 3.206 9.76162C2.40333 9.32296 1.77333 8.72096 1.316 7.95562C0.858667 7.18096 0.63 6.31762 0.63 5.36562C0.63 4.41362 0.858667 3.55496 1.316 2.78962C1.77333 2.01496 2.40333 1.41296 3.206 0.983624C4.00867 0.544958 4.90933 0.325624 5.908 0.325624C6.90667 0.325624 7.80733 0.544958 8.61 0.983624C9.41267 1.41296 10.0427 2.01029 10.5 2.77562C10.9573 3.54096 11.186 4.40429 11.186 5.36562C11.186 6.32696 10.9573 7.19029 10.5 7.95562C10.0427 8.72096 9.41267 9.32296 8.61 9.76162C7.80733 10.191 6.90667 10.4056 5.908 10.4056ZM5.908 8.80962C6.56133 8.80962 7.14933 8.66496 7.672 8.37562C8.19467 8.07696 8.60533 7.66629 8.904 7.14362C9.20267 6.61162 9.352 6.01896 9.352 5.36562C9.352 4.71229 9.20267 4.12429 8.904 3.60162C8.60533 3.06962 8.19467 2.65896 7.672 2.36962C7.14933 2.07096 6.56133 1.92162 5.908 1.92162C5.25467 1.92162 4.66667 2.07096 4.144 2.36962C3.62133 2.65896 3.21067 3.06962 2.912 3.60162C2.61333 4.12429 2.464 4.71229 2.464 5.36562C2.464 6.01896 2.61333 6.61162 2.912 7.14362C3.21067 7.66629 3.62133 8.07696 4.144 8.37562C4.66667 8.66496 5.25467 8.80962 5.908 8.80962ZM16.8713 2.78962H18.6213V5.82762H22.3873V2.78962H24.1373V10.2656H22.3873V7.31162H18.6213V10.2656H16.8713V2.78962ZM29.2686 2.70562C30.37 2.70562 31.21 2.97162 31.7886 3.50362C32.3766 4.02629 32.6706 4.81962 32.6706 5.88362V10.2656H31.0186V9.35562C30.804 9.68229 30.496 9.93429 30.0946 10.1116C29.7026 10.2796 29.2266 10.3636 28.6666 10.3636C28.1066 10.3636 27.6166 10.2703 27.1966 10.0836C26.7766 9.88762 26.45 9.62162 26.2166 9.28562C25.9926 8.94029 25.8806 8.55296 25.8806 8.12362C25.8806 7.45162 26.128 6.91496 26.6226 6.51362C27.1266 6.10296 27.9153 5.89762 28.9886 5.89762H30.9206V5.78562C30.9206 5.26296 30.762 4.86162 30.4446 4.58162C30.1366 4.30162 29.6746 4.16162 29.0586 4.16162C28.6386 4.16162 28.2233 4.22696 27.8126 4.35762C27.4113 4.48829 27.0706 4.67029 26.7906 4.90362L26.1046 3.62962C26.4966 3.33096 26.968 3.10229 27.5186 2.94362C28.0693 2.78496 28.6526 2.70562 29.2686 2.70562ZM29.0306 9.08962C29.4693 9.08962 29.8566 8.99162 30.1926 8.79562C30.538 8.59029 30.7806 8.30096 30.9206 7.92762V7.05962H29.1146C28.1066 7.05962 27.6026 7.39096 27.6026 8.05362C27.6026 8.37096 27.7286 8.62296 27.9806 8.80962C28.2326 8.99629 28.5826 9.08962 29.0306 9.08962ZM38.2382 10.3636C37.4635 10.3636 36.7682 10.2003 36.1522 9.87362C35.5362 9.54696 35.0555 9.09429 34.7102 8.51562C34.3648 7.92762 34.1922 7.26496 34.1922 6.52762C34.1922 5.79029 34.3648 5.13229 34.7102 4.55362C35.0555 3.97496 35.5315 3.52229 36.1382 3.19563C36.7542 2.86896 37.4542 2.70562 38.2382 2.70562C38.9755 2.70562 39.6195 2.85496 40.1702 3.15362C40.7302 3.45229 41.1502 3.88162 41.4302 4.44162L40.0862 5.22562C39.8715 4.88029 39.6008 4.62362 39.2742 4.45562C38.9568 4.27829 38.6068 4.18962 38.2242 4.18962C37.5708 4.18962 37.0295 4.40429 36.6002 4.83362C36.1708 5.25362 35.9562 5.81829 35.9562 6.52762C35.9562 7.23696 36.1662 7.80629 36.5862 8.23562C37.0155 8.65562 37.5615 8.86562 38.2242 8.86562C38.6068 8.86562 38.9568 8.78162 39.2742 8.61362C39.6008 8.43629 39.8715 8.17496 40.0862 7.82962L41.4302 8.61362C41.1408 9.17362 40.7162 9.60762 40.1562 9.91562C39.6055 10.2143 38.9662 10.3636 38.2382 10.3636Z" fill="#2A2828"/>
</svg>
