<svg width="84" height="14" viewBox="0 0 84 14" fill="none" xmlns="http://www.w3.org/2000/svg">
<path d="M9.052 1.2V11H7.26V2.74H2.178V11H0.386V1.2H9.052ZM14.9514 11.098C14.1954 11.098 13.514 10.9347 12.9074 10.608C12.3007 10.2813 11.8247 9.82867 11.4794 9.25C11.1434 8.662 10.9754 7.99933 10.9754 7.262C10.9754 6.52467 11.1434 5.86667 11.4794 5.288C11.8247 4.70933 12.3007 4.25667 12.9074 3.93C13.514 3.60333 14.1954 3.44 14.9514 3.44C15.7167 3.44 16.4027 3.60333 17.0094 3.93C17.616 4.25667 18.0874 4.70933 18.4234 5.288C18.7687 5.86667 18.9414 6.52467 18.9414 7.262C18.9414 7.99933 18.7687 8.662 18.4234 9.25C18.0874 9.82867 17.616 10.2813 17.0094 10.608C16.4027 10.9347 15.7167 11.098 14.9514 11.098ZM14.9514 9.6C15.5954 9.6 16.1274 9.38533 16.5474 8.956C16.9674 8.52667 17.1774 7.962 17.1774 7.262C17.1774 6.562 16.9674 5.99733 16.5474 5.568C16.1274 5.13867 15.5954 4.924 14.9514 4.924C14.3074 4.924 13.7754 5.13867 13.3554 5.568C12.9447 5.99733 12.7394 6.562 12.7394 7.262C12.7394 7.962 12.9447 8.52667 13.3554 8.956C13.7754 9.38533 14.3074 9.6 14.9514 9.6ZM24.8141 3.44C25.5421 3.44 26.1908 3.59867 26.7601 3.916C27.3388 4.23333 27.7915 4.68133 28.1181 5.26C28.4448 5.83867 28.6081 6.506 28.6081 7.262C28.6081 8.018 28.4448 8.69 28.1181 9.278C27.7915 9.85667 27.3388 10.3047 26.7601 10.622C26.1908 10.9393 25.5421 11.098 24.8141 11.098C23.8061 11.098 23.0081 10.762 22.4201 10.09V13.716H20.6701V3.524H22.3361V4.504C22.6255 4.14933 22.9801 3.88333 23.4001 3.706C23.8295 3.52867 24.3008 3.44 24.8141 3.44ZM24.6181 9.6C25.2621 9.6 25.7895 9.38533 26.2001 8.956C26.6201 8.52667 26.8301 7.962 26.8301 7.262C26.8301 6.562 26.6201 5.99733 26.2001 5.568C25.7895 5.13867 25.2621 4.924 24.6181 4.924C24.1981 4.924 23.8201 5.022 23.4841 5.218C23.1481 5.40467 22.8821 5.67533 22.6861 6.03C22.4901 6.38467 22.3921 6.79533 22.3921 7.262C22.3921 7.72867 22.4901 8.13933 22.6861 8.494C22.8821 8.84867 23.1481 9.124 23.4841 9.32C23.8201 9.50667 24.1981 9.6 24.6181 9.6ZM35.9984 5.008H33.3804V11H31.6304V5.008H28.9984V3.524H35.9984V5.008ZM46.8237 7.248C46.8237 8.40533 46.4363 9.31533 45.6617 9.978C44.8963 10.6407 43.7997 11.0187 42.3717 11.112V13.716H40.7197V11.126C39.2917 11.0327 38.195 10.6547 37.4297 9.992C36.6643 9.32933 36.2817 8.41467 36.2817 7.248C36.2817 6.09067 36.6643 5.19 37.4297 4.546C38.195 3.89267 39.2917 3.51933 40.7197 3.426V0.611999H42.3717V3.426C43.7997 3.51933 44.8963 3.89267 45.6617 4.546C46.4363 5.19933 46.8237 6.1 46.8237 7.248ZM38.0037 7.248C38.0037 7.96667 38.223 8.52667 38.6617 8.928C39.1097 9.32933 39.7957 9.572 40.7197 9.656V4.91C39.7957 4.98467 39.1097 5.218 38.6617 5.61C38.223 6.002 38.0037 6.548 38.0037 7.248ZM42.3717 9.656C44.201 9.488 45.1157 8.68533 45.1157 7.248C45.1157 6.53867 44.887 5.99267 44.4297 5.61C43.9817 5.218 43.2957 4.98467 42.3717 4.91V9.656ZM51.8518 11.098C51.0958 11.098 50.4144 10.9347 49.8078 10.608C49.2011 10.2813 48.7251 9.82867 48.3798 9.25C48.0438 8.662 47.8758 7.99933 47.8758 7.262C47.8758 6.52467 48.0438 5.86667 48.3798 5.288C48.7251 4.70933 49.2011 4.25667 49.8078 3.93C50.4144 3.60333 51.0958 3.44 51.8518 3.44C52.6171 3.44 53.3031 3.60333 53.9098 3.93C54.5164 4.25667 54.9878 4.70933 55.3238 5.288C55.6691 5.86667 55.8418 6.52467 55.8418 7.262C55.8418 7.99933 55.6691 8.662 55.3238 9.25C54.9878 9.82867 54.5164 10.2813 53.9098 10.608C53.3031 10.9347 52.6171 11.098 51.8518 11.098ZM51.8518 9.6C52.4958 9.6 53.0278 9.38533 53.4478 8.956C53.8678 8.52667 54.0778 7.962 54.0778 7.262C54.0778 6.562 53.8678 5.99733 53.4478 5.568C53.0278 5.13867 52.4958 4.924 51.8518 4.924C51.2078 4.924 50.6758 5.13867 50.2558 5.568C49.8451 5.99733 49.6398 6.562 49.6398 7.262C49.6398 7.962 49.8451 8.52667 50.2558 8.956C50.6758 9.38533 51.2078 9.6 51.8518 9.6ZM64.2645 3.524V11H62.5145V5.008H59.7145L59.6445 6.492C59.5978 7.48133 59.5045 8.312 59.3645 8.984C59.2338 9.64667 59.0052 10.174 58.6785 10.566C58.3612 10.9487 57.9225 11.14 57.3625 11.14C57.1012 11.14 56.7792 11.0887 56.3965 10.986L56.4805 9.516C56.6112 9.544 56.7232 9.558 56.8165 9.558C57.1712 9.558 57.4372 9.418 57.6145 9.138C57.7918 8.84867 57.9038 8.508 57.9505 8.116C58.0065 7.71467 58.0532 7.14533 58.0905 6.408L58.2165 3.524H64.2645ZM66.6213 3.524H68.3713V8.452L72.5013 3.524H74.0973V11H72.3473V6.072L68.2313 11H66.6213V3.524ZM79.7834 11.098C79.0274 11.098 78.3461 10.9347 77.7394 10.608C77.1327 10.2813 76.6567 9.82867 76.3114 9.25C75.9754 8.662 75.8074 7.99933 75.8074 7.262C75.8074 6.52467 75.9754 5.86667 76.3114 5.288C76.6567 4.70933 77.1327 4.25667 77.7394 3.93C78.3461 3.60333 79.0274 3.44 79.7834 3.44C80.5487 3.44 81.2347 3.60333 81.8414 3.93C82.4481 4.25667 82.9194 4.70933 83.2554 5.288C83.6007 5.86667 83.7734 6.52467 83.7734 7.262C83.7734 7.99933 83.6007 8.662 83.2554 9.25C82.9194 9.82867 82.4481 10.2813 81.8414 10.608C81.2347 10.9347 80.5487 11.098 79.7834 11.098ZM79.7834 9.6C80.4274 9.6 80.9594 9.38533 81.3794 8.956C81.7994 8.52667 82.0094 7.962 82.0094 7.262C82.0094 6.562 81.7994 5.99733 81.3794 5.568C80.9594 5.13867 80.4274 4.924 79.7834 4.924C79.1394 4.924 78.6074 5.13867 78.1874 5.568C77.7767 5.99733 77.5714 6.562 77.5714 7.262C77.5714 7.962 77.7767 8.52667 78.1874 8.956C78.6074 9.38533 79.1394 9.6 79.7834 9.6Z" fill="#2A2828"/>
</svg>
