<svg width="107" height="13" viewBox="0 0 107 13" fill="none" xmlns="http://www.w3.org/2000/svg">
<path d="M9.052 0.199999V10H7.26V1.74H2.178V10H0.386V0.199999H9.052ZM15.7634 2.44C16.4914 2.44 17.14 2.59867 17.7094 2.916C18.288 3.23333 18.7407 3.68133 19.0674 4.26C19.394 4.83867 19.5574 5.506 19.5574 6.262C19.5574 7.018 19.394 7.69 19.0674 8.278C18.7407 8.85667 18.288 9.30467 17.7094 9.622C17.14 9.93933 16.4914 10.098 15.7634 10.098C14.7554 10.098 13.9574 9.762 13.3694 9.09V12.716H11.6194V2.524H13.2854V3.504C13.5747 3.14933 13.9294 2.88333 14.3494 2.706C14.7787 2.52867 15.25 2.44 15.7634 2.44ZM15.5674 8.6C16.2114 8.6 16.7387 8.38533 17.1494 7.956C17.5694 7.52667 17.7794 6.962 17.7794 6.262C17.7794 5.562 17.5694 4.99733 17.1494 4.568C16.7387 4.13867 16.2114 3.924 15.5674 3.924C15.1474 3.924 14.7694 4.022 14.4334 4.218C14.0974 4.40467 13.8314 4.67533 13.6354 5.03C13.4394 5.38467 13.3414 5.79533 13.3414 6.262C13.3414 6.72867 13.4394 7.13933 13.6354 7.494C13.8314 7.84867 14.0974 8.124 14.4334 8.32C14.7694 8.50667 15.1474 8.6 15.5674 8.6ZM24.631 10.098C23.875 10.098 23.1937 9.93467 22.587 9.608C21.9804 9.28133 21.5044 8.82867 21.159 8.25C20.823 7.662 20.655 6.99933 20.655 6.262C20.655 5.52467 20.823 4.86667 21.159 4.288C21.5044 3.70933 21.9804 3.25667 22.587 2.93C23.1937 2.60333 23.875 2.44 24.631 2.44C25.3964 2.44 26.0824 2.60333 26.689 2.93C27.2957 3.25667 27.767 3.70933 28.103 4.288C28.4484 4.86667 28.621 5.52467 28.621 6.262C28.621 6.99933 28.4484 7.662 28.103 8.25C27.767 8.82867 27.2957 9.28133 26.689 9.608C26.0824 9.93467 25.3964 10.098 24.631 10.098ZM24.631 8.6C25.275 8.6 25.807 8.38533 26.227 7.956C26.647 7.52667 26.857 6.962 26.857 6.262C26.857 5.562 26.647 4.99733 26.227 4.568C25.807 4.13867 25.275 3.924 24.631 3.924C23.987 3.924 23.455 4.13867 23.035 4.568C22.6244 4.99733 22.419 5.562 22.419 6.262C22.419 6.962 22.6244 7.52667 23.035 7.956C23.455 8.38533 23.987 8.6 24.631 8.6ZM30.3498 2.524H32.0998V7.452L36.2298 2.524H37.8258V10H36.0758V5.072L31.9598 10H30.3498V2.524ZM44.5502 6.108C45.0169 6.23867 45.3762 6.45333 45.6282 6.752C45.8895 7.04133 46.0202 7.39133 46.0202 7.802C46.0202 8.25933 45.8662 8.66533 45.5582 9.02C45.2502 9.36533 44.8255 9.636 44.2842 9.832C43.7429 10.028 43.1269 10.126 42.4362 10.126C41.8575 10.126 41.2929 10.0607 40.7422 9.93C40.1915 9.79 39.6922 9.594 39.2442 9.342L39.7482 8.04C40.1122 8.24533 40.5229 8.404 40.9802 8.516C41.4375 8.628 41.8949 8.684 42.3522 8.684C42.9402 8.684 43.3975 8.59533 43.7242 8.418C44.0602 8.23133 44.2282 7.97933 44.2282 7.662C44.2282 7.37267 44.0975 7.14867 43.8362 6.99C43.5842 6.83133 43.2249 6.752 42.7582 6.752H41.3022V5.576H42.6182C43.0569 5.576 43.3975 5.50133 43.6402 5.352C43.8922 5.20267 44.0182 4.99267 44.0182 4.722C44.0182 4.45133 43.8689 4.23667 43.5702 4.078C43.2715 3.91933 42.8609 3.84 42.3382 3.84C41.5915 3.84 40.8029 4.022 39.9722 4.386L39.5242 3.098C40.5042 2.64067 41.4935 2.412 42.4922 2.412C43.1269 2.412 43.6962 2.50067 44.2002 2.678C44.7042 2.846 45.0962 3.08867 45.3762 3.406C45.6655 3.714 45.8102 4.06867 45.8102 4.47C45.8102 4.834 45.6982 5.16067 45.4742 5.45C45.2502 5.73 44.9422 5.94933 44.5502 6.108ZM53.2542 6.108C54.1782 6.388 54.6402 6.98533 54.6402 7.9C54.6402 8.572 54.3882 9.09 53.8842 9.454C53.3802 9.818 52.6335 10 51.6442 10H47.8362V2.524H51.4902C52.4048 2.524 53.1188 2.692 53.6322 3.028C54.1455 3.364 54.4022 3.84 54.4022 4.456C54.4022 4.83867 54.2995 5.17 54.0942 5.45C53.8982 5.73 53.6182 5.94933 53.2542 6.108ZM49.5022 5.646H51.3362C52.2415 5.646 52.6942 5.33333 52.6942 4.708C52.6942 4.10133 52.2415 3.798 51.3362 3.798H49.5022V5.646ZM51.5042 8.726C52.4655 8.726 52.9462 8.41333 52.9462 7.788C52.9462 7.46133 52.8342 7.21867 52.6102 7.06C52.3862 6.892 52.0362 6.808 51.5602 6.808H49.5022V8.726H51.5042ZM59.8361 10.098C59.0801 10.098 58.3988 9.93467 57.7921 9.608C57.1855 9.28133 56.7095 8.82867 56.3641 8.25C56.0281 7.662 55.8601 6.99933 55.8601 6.262C55.8601 5.52467 56.0281 4.86667 56.3641 4.288C56.7095 3.70933 57.1855 3.25667 57.7921 2.93C58.3988 2.60333 59.0801 2.44 59.8361 2.44C60.6015 2.44 61.2875 2.60333 61.8941 2.93C62.5008 3.25667 62.9721 3.70933 63.3081 4.288C63.6535 4.86667 63.8261 5.52467 63.8261 6.262C63.8261 6.99933 63.6535 7.662 63.3081 8.25C62.9721 8.82867 62.5008 9.28133 61.8941 9.608C61.2875 9.93467 60.6015 10.098 59.8361 10.098ZM59.8361 8.6C60.4801 8.6 61.0121 8.38533 61.4321 7.956C61.8521 7.52667 62.0621 6.962 62.0621 6.262C62.0621 5.562 61.8521 4.99733 61.4321 4.568C61.0121 4.13867 60.4801 3.924 59.8361 3.924C59.1921 3.924 58.6601 4.13867 58.2401 4.568C57.8295 4.99733 57.6241 5.562 57.6241 6.262C57.6241 6.962 57.8295 7.52667 58.2401 7.956C58.6601 8.38533 59.1921 8.6 59.8361 8.6ZM73.4529 8.516V11.666H71.8149V10H66.0469V11.666H64.4229V8.516H64.7729C65.2489 8.49733 65.5709 8.194 65.7389 7.606C65.9162 7.00867 66.0329 6.16867 66.0889 5.086L66.1869 2.524H72.3469V8.516H73.4529ZM67.6849 5.212C67.6475 6.07067 67.5775 6.77067 67.4749 7.312C67.3722 7.85333 67.1855 8.25467 66.9149 8.516H70.5969V4.008H67.7269L67.6849 5.212ZM78.4178 10.098C77.6432 10.098 76.9478 9.93467 76.3318 9.608C75.7158 9.28133 75.2352 8.82867 74.8898 8.25C74.5445 7.662 74.3718 6.99933 74.3718 6.262C74.3718 5.52467 74.5445 4.86667 74.8898 4.288C75.2352 3.70933 75.7112 3.25667 76.3178 2.93C76.9338 2.60333 77.6338 2.44 78.4178 2.44C79.1552 2.44 79.7992 2.58933 80.3498 2.888C80.9098 3.18667 81.3298 3.616 81.6098 4.176L80.2658 4.96C80.0512 4.61467 79.7805 4.358 79.4538 4.19C79.1365 4.01267 78.7865 3.924 78.4038 3.924C77.7505 3.924 77.2092 4.13867 76.7798 4.568C76.3505 4.988 76.1358 5.55267 76.1358 6.262C76.1358 6.97133 76.3458 7.54067 76.7658 7.97C77.1952 8.39 77.7412 8.6 78.4038 8.6C78.7865 8.6 79.1365 8.516 79.4538 8.348C79.7805 8.17067 80.0512 7.90933 80.2658 7.564L81.6098 8.348C81.3205 8.908 80.8958 9.342 80.3358 9.65C79.7852 9.94867 79.1458 10.098 78.4178 10.098ZM89.0043 4.008H86.3863V10H84.6363V4.008H82.0043V2.524H89.0043V4.008ZM95.6917 6.108C96.6157 6.388 97.0777 6.98533 97.0777 7.9C97.0777 8.572 96.8257 9.09 96.3217 9.454C95.8177 9.818 95.071 10 94.0817 10H90.2737V2.524H93.9277C94.8423 2.524 95.5563 2.692 96.0697 3.028C96.583 3.364 96.8397 3.84 96.8397 4.456C96.8397 4.83867 96.737 5.17 96.5317 5.45C96.3357 5.73 96.0557 5.94933 95.6917 6.108ZM91.9397 5.646H93.7737C94.679 5.646 95.1317 5.33333 95.1317 4.708C95.1317 4.10133 94.679 3.798 93.7737 3.798H91.9397V5.646ZM93.9417 8.726C94.903 8.726 95.3837 8.41333 95.3837 7.788C95.3837 7.46133 95.2717 7.21867 95.0477 7.06C94.8237 6.892 94.4737 6.808 93.9977 6.808H91.9397V8.726H93.9417ZM102.274 10.098C101.518 10.098 100.836 9.93467 100.23 9.608C99.623 9.28133 99.147 8.82867 98.8016 8.25C98.4656 7.662 98.2976 6.99933 98.2976 6.262C98.2976 5.52467 98.4656 4.86667 98.8016 4.288C99.147 3.70933 99.623 3.25667 100.23 2.93C100.836 2.60333 101.518 2.44 102.274 2.44C103.039 2.44 103.725 2.60333 104.332 2.93C104.938 3.25667 105.41 3.70933 105.746 4.288C106.091 4.86667 106.264 5.52467 106.264 6.262C106.264 6.99933 106.091 7.662 105.746 8.25C105.41 8.82867 104.938 9.28133 104.332 9.608C103.725 9.93467 103.039 10.098 102.274 10.098ZM102.274 8.6C102.918 8.6 103.45 8.38533 103.87 7.956C104.29 7.52667 104.5 6.962 104.5 6.262C104.5 5.562 104.29 4.99733 103.87 4.568C103.45 4.13867 102.918 3.924 102.274 3.924C101.63 3.924 101.098 4.13867 100.678 4.568C100.267 4.99733 100.062 5.562 100.062 6.262C100.062 6.962 100.267 7.52667 100.678 7.956C101.098 8.38533 101.63 8.6 102.274 8.6Z" fill="#2A2828"/>
</svg>
