<svg width="51" height="13" viewBox="0 0 51 13" fill="none" xmlns="http://www.w3.org/2000/svg">
<path d="M9.786 0.199999L5.53 8.11C5.15667 8.81 4.70867 9.33733 4.186 9.692C3.67267 10.0373 3.11267 10.21 2.506 10.21C2.02067 10.21 1.54 10.1073 1.064 9.902L1.512 8.474C1.89467 8.59533 2.212 8.656 2.464 8.656C3.052 8.656 3.53733 8.35267 3.92 7.746L4.074 7.508L0.168 0.199999H2.114L5.012 5.954L7.994 0.199999H9.786ZM13.6971 10.098C12.9225 10.098 12.2271 9.93467 11.6111 9.608C10.9951 9.28133 10.5145 8.82867 10.1691 8.25C9.82381 7.662 9.65114 6.99933 9.65114 6.262C9.65114 5.52467 9.82381 4.86667 10.1691 4.288C10.5145 3.70933 10.9905 3.25667 11.5971 2.93C12.2131 2.60333 12.9131 2.44 13.6971 2.44C14.4345 2.44 15.0785 2.58933 15.6291 2.888C16.1891 3.18667 16.6091 3.616 16.8891 4.176L15.5451 4.96C15.3305 4.61467 15.0598 4.358 14.7331 4.19C14.4158 4.01267 14.0658 3.924 13.6831 3.924C13.0298 3.924 12.4885 4.13867 12.0591 4.568C11.6298 4.988 11.4151 5.55267 11.4151 6.262C11.4151 6.97133 11.6251 7.54067 12.0451 7.97C12.4745 8.39 13.0205 8.6 13.6831 8.6C14.0658 8.6 14.4158 8.516 14.7331 8.348C15.0598 8.17067 15.3305 7.90933 15.5451 7.564L16.8891 8.348C16.5998 8.908 16.1751 9.342 15.6151 9.65C15.0645 9.94867 14.4251 10.098 13.6971 10.098ZM25.0418 2.524V10H23.2918V4.008H20.4918L20.4218 5.492C20.3752 6.48133 20.2818 7.312 20.1418 7.984C20.0112 8.64667 19.7825 9.174 19.4558 9.566C19.1385 9.94867 18.6998 10.14 18.1398 10.14C17.8785 10.14 17.5565 10.0887 17.1738 9.986L17.2578 8.516C17.3885 8.544 17.5005 8.558 17.5938 8.558C17.9485 8.558 18.2145 8.418 18.3918 8.138C18.5692 7.84867 18.6812 7.508 18.7278 7.116C18.7838 6.71467 18.8305 6.14533 18.8678 5.408L18.9938 2.524H25.0418ZM34.4547 2.524L30.9547 10.602C30.628 11.414 30.2313 11.9833 29.7647 12.31C29.298 12.646 28.7333 12.814 28.0707 12.814C27.6973 12.814 27.3287 12.7533 26.9647 12.632C26.6007 12.5107 26.302 12.3427 26.0687 12.128L26.7687 10.84C26.9367 10.9987 27.1327 11.1247 27.3567 11.218C27.59 11.3113 27.8233 11.358 28.0567 11.358C28.3647 11.358 28.6167 11.2787 28.8127 11.12C29.018 10.9613 29.2047 10.6953 29.3727 10.322L29.4987 10.028L26.2367 2.524H28.0567L30.4087 8.054L32.7747 2.524H34.4547ZM41.4101 4.008H37.4201V10H35.6701V2.524H41.4101V4.008ZM42.6838 2.524H44.4338V7.452L48.5638 2.524H50.1598V10H48.4098V5.072L44.2938 10H42.6838V2.524Z" fill="#2A2828"/>
</svg>
